<mxfile host="65bd71144e">
    <diagram id="l0ba4gm8rq2NGziQEH8P" name="ページ3">
        <mxGraphModel dx="973" dy="599" grid="0" gridSize="10" guides="1" tooltips="1" connect="1" arrows="1" fold="1" page="0" pageScale="1" pageWidth="827" pageHeight="1169" math="0" shadow="0">
            <root>
                <mxCell id="0"/>
                <mxCell id="1" parent="0"/>
                <mxCell id="houy_Up9C2UZ-9tv4yLi-1" value="" style="shape=umlLifeline;perimeter=lifelinePerimeter;whiteSpace=wrap;html=1;container=1;dropTarget=0;collapsible=0;recursiveResize=0;outlineConnect=0;portConstraint=eastwest;newEdgeStyle={&quot;curved&quot;:0,&quot;rounded&quot;:0};participant=umlActor;" parent="1" vertex="1">
                    <mxGeometry x="9" y="25" width="20" height="1006" as="geometry"/>
                </mxCell>
                <mxCell id="houy_Up9C2UZ-9tv4yLi-2" value="Product&lt;div&gt;Controller&lt;/div&gt;" style="shape=umlLifeline;perimeter=lifelinePerimeter;whiteSpace=wrap;html=1;container=1;dropTarget=0;collapsible=0;recursiveResize=0;outlineConnect=0;portConstraint=eastwest;newEdgeStyle={&quot;curved&quot;:0,&quot;rounded&quot;:0};" parent="1" vertex="1">
                    <mxGeometry x="71" y="19" width="100" height="1014" as="geometry"/>
                </mxCell>
                <mxCell id="houy_Up9C2UZ-9tv4yLi-3" value="" style="html=1;points=[[0,0,0,0,5],[0,1,0,0,-5],[1,0,0,0,5],[1,1,0,0,-5]];perimeter=orthogonalPerimeter;outlineConnect=0;targetShapes=umlLifeline;portConstraint=eastwest;newEdgeStyle={&quot;curved&quot;:0,&quot;rounded&quot;:0};" parent="houy_Up9C2UZ-9tv4yLi-2" vertex="1">
                    <mxGeometry x="45" y="92" width="10" height="193" as="geometry"/>
                </mxCell>
                <mxCell id="houy_Up9C2UZ-9tv4yLi-4" value="form()" style="html=1;verticalAlign=bottom;endArrow=block;curved=0;rounded=0;entryX=0;entryY=0;entryDx=0;entryDy=5;fontSize=12;startSize=8;endSize=8;" parent="houy_Up9C2UZ-9tv4yLi-2" target="houy_Up9C2UZ-9tv4yLi-3" edge="1">
                    <mxGeometry x="0.0115" relative="1" as="geometry">
                        <mxPoint x="-42" y="97" as="sourcePoint"/>
                        <mxPoint as="offset"/>
                    </mxGeometry>
                </mxCell>
                <mxCell id="houy_Up9C2UZ-9tv4yLi-21" value="Modelにセット" style="html=1;align=left;spacingLeft=2;endArrow=block;rounded=0;edgeStyle=orthogonalEdgeStyle;curved=0;rounded=0;fontSize=12;startSize=8;endSize=8;" parent="houy_Up9C2UZ-9tv4yLi-2" edge="1">
                    <mxGeometry x="-0.175" y="7" relative="1" as="geometry">
                        <mxPoint x="55" y="234" as="sourcePoint"/>
                        <Array as="points">
                            <mxPoint x="58" y="234"/>
                            <mxPoint x="88" y="234"/>
                            <mxPoint x="88" y="256"/>
                        </Array>
                        <mxPoint x="63" y="256" as="targetPoint"/>
                        <mxPoint as="offset"/>
                    </mxGeometry>
                </mxCell>
                <mxCell id="houy_Up9C2UZ-9tv4yLi-35" value="" style="html=1;points=[[0,0,0,0,5],[0,1,0,0,-5],[1,0,0,0,5],[1,1,0,0,-5]];perimeter=orthogonalPerimeter;outlineConnect=0;targetShapes=umlLifeline;portConstraint=eastwest;newEdgeStyle={&quot;curved&quot;:0,&quot;rounded&quot;:0};" parent="houy_Up9C2UZ-9tv4yLi-2" vertex="1">
                    <mxGeometry x="45" y="412" width="10" height="118" as="geometry"/>
                </mxCell>
                <mxCell id="houy_Up9C2UZ-9tv4yLi-47" value="" style="html=1;points=[[0,0,0,0,5],[0,1,0,0,-5],[1,0,0,0,5],[1,1,0,0,-5]];perimeter=orthogonalPerimeter;outlineConnect=0;targetShapes=umlLifeline;portConstraint=eastwest;newEdgeStyle={&quot;curved&quot;:0,&quot;rounded&quot;:0};" parent="houy_Up9C2UZ-9tv4yLi-2" vertex="1">
                    <mxGeometry x="45" y="593" width="10" height="172" as="geometry"/>
                </mxCell>
                <mxCell id="houy_Up9C2UZ-9tv4yLi-56" value="" style="html=1;points=[[0,0,0,0,5],[0,1,0,0,-5],[1,0,0,0,5],[1,1,0,0,-5]];perimeter=orthogonalPerimeter;outlineConnect=0;targetShapes=umlLifeline;portConstraint=eastwest;newEdgeStyle={&quot;curved&quot;:0,&quot;rounded&quot;:0};" parent="houy_Up9C2UZ-9tv4yLi-2" vertex="1">
                    <mxGeometry x="45" y="819" width="10" height="80" as="geometry"/>
                </mxCell>
                <mxCell id="houy_Up9C2UZ-9tv4yLi-10" value="Product&lt;div&gt;Service&lt;/div&gt;" style="shape=umlLifeline;perimeter=lifelinePerimeter;whiteSpace=wrap;html=1;container=1;dropTarget=0;collapsible=0;recursiveResize=0;outlineConnect=0;portConstraint=eastwest;newEdgeStyle={&quot;curved&quot;:0,&quot;rounded&quot;:0};" parent="1" vertex="1">
                    <mxGeometry x="446" y="19" width="68" height="1025" as="geometry"/>
                </mxCell>
                <mxCell id="houy_Up9C2UZ-9tv4yLi-11" value="" style="html=1;points=[[0,0,0,0,5],[0,1,0,0,-5],[1,0,0,0,5],[1,1,0,0,-5]];perimeter=orthogonalPerimeter;outlineConnect=0;targetShapes=umlLifeline;portConstraint=eastwest;newEdgeStyle={&quot;curved&quot;:0,&quot;rounded&quot;:0};" parent="houy_Up9C2UZ-9tv4yLi-10" vertex="1">
                    <mxGeometry x="29" y="92" width="10" height="164" as="geometry"/>
                </mxCell>
                <mxCell id="houy_Up9C2UZ-9tv4yLi-53" value="" style="html=1;points=[[0,0,0,0,5],[0,1,0,0,-5],[1,0,0,0,5],[1,1,0,0,-5]];perimeter=orthogonalPerimeter;outlineConnect=0;targetShapes=umlLifeline;portConstraint=eastwest;newEdgeStyle={&quot;curved&quot;:0,&quot;rounded&quot;:0};" parent="houy_Up9C2UZ-9tv4yLi-10" vertex="1">
                    <mxGeometry x="29" y="661" width="10" height="80" as="geometry"/>
                </mxCell>
                <mxCell id="houy_Up9C2UZ-9tv4yLi-14" value="Product&lt;div&gt;Category&lt;/div&gt;&lt;div&gt;Repository&lt;/div&gt;" style="shape=umlLifeline;perimeter=lifelinePerimeter;whiteSpace=wrap;html=1;container=1;dropTarget=0;collapsible=0;recursiveResize=0;outlineConnect=0;portConstraint=eastwest;newEdgeStyle={&quot;curved&quot;:0,&quot;rounded&quot;:0};" parent="1" vertex="1">
                    <mxGeometry x="544" y="21" width="100" height="1026" as="geometry"/>
                </mxCell>
                <mxCell id="houy_Up9C2UZ-9tv4yLi-15" value="" style="html=1;points=[[0,0,0,0,5],[0,1,0,0,-5],[1,0,0,0,5],[1,1,0,0,-5]];perimeter=orthogonalPerimeter;outlineConnect=0;targetShapes=umlLifeline;portConstraint=eastwest;newEdgeStyle={&quot;curved&quot;:0,&quot;rounded&quot;:0};" parent="houy_Up9C2UZ-9tv4yLi-14" vertex="1">
                    <mxGeometry x="47" y="128" width="10" height="88" as="geometry"/>
                </mxCell>
                <mxCell id="houy_Up9C2UZ-9tv4yLi-12" value="getProduct&lt;div&gt;Categories()&lt;/div&gt;" style="html=1;verticalAlign=bottom;endArrow=block;curved=0;rounded=0;fontSize=12;startSize=8;endSize=8;" parent="1" edge="1" target="houy_Up9C2UZ-9tv4yLi-10">
                    <mxGeometry x="-0.6802" y="-2" relative="1" as="geometry">
                        <mxPoint x="114.99736842105271" y="156.0000000000001" as="sourcePoint"/>
                        <mxPoint x="1" as="offset"/>
                        <mxPoint x="387.55" y="156.0000000000001" as="targetPoint"/>
                    </mxGeometry>
                </mxCell>
                <mxCell id="houy_Up9C2UZ-9tv4yLi-13" value="List&amp;lt;ProductCategory&amp;gt;" style="html=1;verticalAlign=bottom;endArrow=open;dashed=1;endSize=8;curved=0;rounded=0;fontSize=12;" parent="1" source="houy_Up9C2UZ-9tv4yLi-10" target="houy_Up9C2UZ-9tv4yLi-2" edge="1">
                    <mxGeometry x="0.4328" relative="1" as="geometry">
                        <mxPoint x="177" y="180" as="targetPoint"/>
                        <Array as="points">
                            <mxPoint x="242" y="229"/>
                        </Array>
                        <mxPoint as="offset"/>
                    </mxGeometry>
                </mxCell>
                <mxCell id="houy_Up9C2UZ-9tv4yLi-5" value="入力画面" style="html=1;verticalAlign=bottom;endArrow=open;dashed=1;endSize=8;curved=0;rounded=0;exitX=0;exitY=1;exitDx=0;exitDy=-5;fontSize=12;" parent="1" source="houy_Up9C2UZ-9tv4yLi-3" target="houy_Up9C2UZ-9tv4yLi-1" edge="1">
                    <mxGeometry relative="1" as="geometry">
                        <mxPoint x="21" y="182" as="targetPoint"/>
                    </mxGeometry>
                </mxCell>
                <mxCell id="houy_Up9C2UZ-9tv4yLi-22" value="Product&lt;br&gt;Form" style="shape=umlLifeline;perimeter=lifelinePerimeter;whiteSpace=wrap;html=1;container=1;dropTarget=0;collapsible=0;recursiveResize=0;outlineConnect=0;portConstraint=eastwest;newEdgeStyle={&quot;curved&quot;:0,&quot;rounded&quot;:0};" parent="1" vertex="1">
                    <mxGeometry x="198" y="19" width="57" height="1018" as="geometry"/>
                </mxCell>
                <mxCell id="houy_Up9C2UZ-9tv4yLi-38" value="" style="html=1;points=[[0,0,0,0,5],[0,1,0,0,-5],[1,0,0,0,5],[1,1,0,0,-5]];perimeter=orthogonalPerimeter;outlineConnect=0;targetShapes=umlLifeline;portConstraint=eastwest;newEdgeStyle={&quot;curved&quot;:0,&quot;rounded&quot;:0};" parent="houy_Up9C2UZ-9tv4yLi-22" vertex="1">
                    <mxGeometry x="23.5" y="481" width="10" height="41" as="geometry"/>
                </mxCell>
                <mxCell id="houy_Up9C2UZ-9tv4yLi-23" value="Product&lt;br&gt;Helper" style="shape=umlLifeline;perimeter=lifelinePerimeter;whiteSpace=wrap;html=1;container=1;dropTarget=0;collapsible=0;recursiveResize=0;outlineConnect=0;portConstraint=eastwest;newEdgeStyle={&quot;curved&quot;:0,&quot;rounded&quot;:0};" parent="1" vertex="1">
                    <mxGeometry x="362" y="19" width="57" height="1022" as="geometry"/>
                </mxCell>
                <mxCell id="houy_Up9C2UZ-9tv4yLi-50" value="" style="html=1;points=[[0,0,0,0,5],[0,1,0,0,-5],[1,0,0,0,5],[1,1,0,0,-5]];perimeter=orthogonalPerimeter;outlineConnect=0;targetShapes=umlLifeline;portConstraint=eastwest;newEdgeStyle={&quot;curved&quot;:0,&quot;rounded&quot;:0};" parent="houy_Up9C2UZ-9tv4yLi-23" vertex="1">
                    <mxGeometry x="22" y="607" width="10" height="31" as="geometry"/>
                </mxCell>
                <mxCell id="houy_Up9C2UZ-9tv4yLi-16" value="selectAll()" style="html=1;verticalAlign=bottom;endArrow=block;curved=0;rounded=0;entryX=0;entryY=0;entryDx=0;entryDy=5;fontSize=12;startSize=8;endSize=8;" parent="1" source="houy_Up9C2UZ-9tv4yLi-10" target="houy_Up9C2UZ-9tv4yLi-15" edge="1">
                    <mxGeometry x="0.0115" relative="1" as="geometry">
                        <mxPoint x="433" y="109" as="sourcePoint"/>
                        <mxPoint as="offset"/>
                    </mxGeometry>
                </mxCell>
                <mxCell id="houy_Up9C2UZ-9tv4yLi-17" value="List&lt;div&gt;&amp;lt;ProductCategory&amp;gt;&lt;/div&gt;" style="html=1;verticalAlign=bottom;endArrow=open;dashed=1;endSize=8;curved=0;rounded=0;fontSize=12;exitX=1;exitY=1;exitDx=0;exitDy=-5;exitPerimeter=0;" parent="1" source="houy_Up9C2UZ-9tv4yLi-15" target="houy_Up9C2UZ-9tv4yLi-10" edge="1">
                    <mxGeometry relative="1" as="geometry">
                        <mxPoint x="412" y="187" as="targetPoint"/>
                        <mxPoint x="563" y="187" as="sourcePoint"/>
                    </mxGeometry>
                </mxCell>
                <mxCell id="houy_Up9C2UZ-9tv4yLi-24" value="" style="shape=link;html=1;rounded=0;fontSize=12;startSize=8;endSize=8;curved=1;" parent="1" edge="1" target="houy_Up9C2UZ-9tv4yLi-33">
                    <mxGeometry width="100" relative="1" as="geometry">
                        <mxPoint x="20" y="381" as="sourcePoint"/>
                        <mxPoint x="745.5" y="381" as="targetPoint"/>
                    </mxGeometry>
                </mxCell>
                <mxCell id="houy_Up9C2UZ-9tv4yLi-26" value="Product&lt;div&gt;Repository&lt;/div&gt;" style="shape=umlLifeline;perimeter=lifelinePerimeter;whiteSpace=wrap;html=1;container=1;dropTarget=0;collapsible=0;recursiveResize=0;outlineConnect=0;portConstraint=eastwest;newEdgeStyle={&quot;curved&quot;:0,&quot;rounded&quot;:0};" parent="1" vertex="1">
                    <mxGeometry x="677" y="19" width="100" height="1030" as="geometry"/>
                </mxCell>
                <mxCell id="houy_Up9C2UZ-9tv4yLi-62" value="" style="html=1;points=[[0,0,0,0,5],[0,1,0,0,-5],[1,0,0,0,5],[1,1,0,0,-5]];perimeter=orthogonalPerimeter;outlineConnect=0;targetShapes=umlLifeline;portConstraint=eastwest;newEdgeStyle={&quot;curved&quot;:0,&quot;rounded&quot;:0};" parent="houy_Up9C2UZ-9tv4yLi-26" vertex="1">
                    <mxGeometry x="44" y="681" width="10" height="43" as="geometry"/>
                </mxCell>
                <mxCell id="houy_Up9C2UZ-9tv4yLi-33" value="DataBase" style="shape=umlLifeline;perimeter=lifelinePerimeter;whiteSpace=wrap;html=1;container=1;dropTarget=0;collapsible=0;recursiveResize=0;outlineConnect=0;portConstraint=eastwest;newEdgeStyle={&quot;curved&quot;:0,&quot;rounded&quot;:0};" parent="1" vertex="1">
                    <mxGeometry x="805" y="19" width="100" height="1026" as="geometry"/>
                </mxCell>
                <mxCell id="houy_Up9C2UZ-9tv4yLi-44" value="" style="html=1;points=[[0,0,0,0,5],[0,1,0,0,-5],[1,0,0,0,5],[1,1,0,0,-5]];perimeter=orthogonalPerimeter;outlineConnect=0;targetShapes=umlLifeline;portConstraint=eastwest;newEdgeStyle={&quot;curved&quot;:0,&quot;rounded&quot;:0};" parent="houy_Up9C2UZ-9tv4yLi-33" vertex="1">
                    <mxGeometry x="47" y="133" width="10" height="33" as="geometry"/>
                </mxCell>
                <mxCell id="houy_Up9C2UZ-9tv4yLi-65" value="" style="html=1;points=[[0,0,0,0,5],[0,1,0,0,-5],[1,0,0,0,5],[1,1,0,0,-5]];perimeter=orthogonalPerimeter;outlineConnect=0;targetShapes=umlLifeline;portConstraint=eastwest;newEdgeStyle={&quot;curved&quot;:0,&quot;rounded&quot;:0};" parent="houy_Up9C2UZ-9tv4yLi-33" vertex="1">
                    <mxGeometry x="43" y="686" width="10" height="29" as="geometry"/>
                </mxCell>
                <mxCell id="houy_Up9C2UZ-9tv4yLi-34" value="商品入力" style="html=1;align=left;spacingLeft=2;endArrow=block;rounded=0;edgeStyle=orthogonalEdgeStyle;curved=0;rounded=0;fontSize=12;startSize=8;endSize=8;" parent="1" edge="1">
                    <mxGeometry x="-0.175" y="3" relative="1" as="geometry">
                        <mxPoint x="18" y="320" as="sourcePoint"/>
                        <Array as="points">
                            <mxPoint x="21" y="320"/>
                            <mxPoint x="51" y="320"/>
                            <mxPoint x="51" y="342"/>
                        </Array>
                        <mxPoint x="26" y="342" as="targetPoint"/>
                        <mxPoint as="offset"/>
                    </mxGeometry>
                </mxCell>
                <mxCell id="houy_Up9C2UZ-9tv4yLi-36" value="confirm()" style="html=1;verticalAlign=bottom;endArrow=block;curved=0;rounded=0;entryX=0;entryY=0;entryDx=0;entryDy=5;fontSize=12;startSize=8;endSize=8;" parent="1" source="houy_Up9C2UZ-9tv4yLi-1" target="houy_Up9C2UZ-9tv4yLi-35" edge="1">
                    <mxGeometry relative="1" as="geometry">
                        <mxPoint x="38" y="432" as="sourcePoint"/>
                    </mxGeometry>
                </mxCell>
                <mxCell id="houy_Up9C2UZ-9tv4yLi-37" value="確認画面" style="html=1;verticalAlign=bottom;endArrow=open;dashed=1;endSize=8;curved=0;rounded=0;exitX=0;exitY=1;exitDx=0;exitDy=-5;fontSize=12;" parent="1" source="houy_Up9C2UZ-9tv4yLi-35" target="houy_Up9C2UZ-9tv4yLi-1" edge="1">
                    <mxGeometry relative="1" as="geometry">
                        <mxPoint x="38" y="502" as="targetPoint"/>
                    </mxGeometry>
                </mxCell>
                <mxCell id="houy_Up9C2UZ-9tv4yLi-40" value="ProductForm" style="html=1;verticalAlign=bottom;endArrow=open;dashed=1;endSize=8;curved=0;rounded=0;exitX=0;exitY=1;exitDx=0;exitDy=-5;fontSize=12;" parent="1" edge="1">
                    <mxGeometry x="0.0155" y="23" relative="1" as="geometry">
                        <mxPoint x="117.00142857142868" y="522" as="targetPoint"/>
                        <mxPoint x="218.43" y="522" as="sourcePoint"/>
                        <mxPoint as="offset"/>
                    </mxGeometry>
                </mxCell>
                <mxCell id="houy_Up9C2UZ-9tv4yLi-39" value="セット" style="html=1;verticalAlign=bottom;endArrow=block;curved=0;rounded=0;entryX=0;entryY=0;entryDx=0;entryDy=5;fontSize=12;startSize=8;endSize=8;" parent="1" source="houy_Up9C2UZ-9tv4yLi-2" target="houy_Up9C2UZ-9tv4yLi-38" edge="1">
                    <mxGeometry relative="1" as="geometry">
                        <mxPoint x="155" y="441" as="sourcePoint"/>
                    </mxGeometry>
                </mxCell>
                <mxCell id="houy_Up9C2UZ-9tv4yLi-43" value="" style="shape=link;html=1;rounded=0;fontSize=12;startSize=8;endSize=8;curved=1;" parent="1" target="houy_Up9C2UZ-9tv4yLi-33" edge="1">
                    <mxGeometry width="100" relative="1" as="geometry">
                        <mxPoint x="17" y="582" as="sourcePoint"/>
                        <mxPoint x="742.5" y="582" as="targetPoint"/>
                    </mxGeometry>
                </mxCell>
                <mxCell id="houy_Up9C2UZ-9tv4yLi-46" value="&lt;font style=&quot;font-size: 10px;&quot;&gt;LIst&amp;lt;ProductCategory&amp;gt;&lt;/font&gt;" style="html=1;verticalAlign=bottom;endArrow=open;dashed=1;endSize=8;curved=0;rounded=0;exitX=0;exitY=1;exitDx=0;exitDy=-5;fontSize=12;" parent="1" source="houy_Up9C2UZ-9tv4yLi-44" target="houy_Up9C2UZ-9tv4yLi-14" edge="1">
                    <mxGeometry relative="1" as="geometry">
                        <mxPoint x="674" y="222" as="targetPoint"/>
                    </mxGeometry>
                </mxCell>
                <mxCell id="houy_Up9C2UZ-9tv4yLi-45" value="&lt;font style=&quot;font-size: 10px;&quot;&gt;SQL(SELECT PRODUCT_CATEGORIES)&lt;/font&gt;" style="html=1;verticalAlign=bottom;endArrow=block;curved=0;rounded=0;entryX=0;entryY=0;entryDx=0;entryDy=5;fontSize=12;startSize=8;endSize=8;" parent="1" source="houy_Up9C2UZ-9tv4yLi-14" target="houy_Up9C2UZ-9tv4yLi-44" edge="1">
                    <mxGeometry relative="1" as="geometry">
                        <mxPoint x="674" y="152" as="sourcePoint"/>
                    </mxGeometry>
                </mxCell>
                <mxCell id="houy_Up9C2UZ-9tv4yLi-49" value="リダイレクト" style="html=1;verticalAlign=bottom;endArrow=open;dashed=1;endSize=8;curved=0;rounded=0;exitX=0;exitY=1;exitDx=0;exitDy=-5;fontSize=12;" parent="1" source="houy_Up9C2UZ-9tv4yLi-47" target="houy_Up9C2UZ-9tv4yLi-1" edge="1">
                    <mxGeometry relative="1" as="geometry">
                        <mxPoint x="6" y="697" as="targetPoint"/>
                    </mxGeometry>
                </mxCell>
                <mxCell id="houy_Up9C2UZ-9tv4yLi-48" value="execute()" style="html=1;verticalAlign=bottom;endArrow=block;curved=0;rounded=0;entryX=0;entryY=0;entryDx=0;entryDy=5;fontSize=12;startSize=8;endSize=8;" parent="1" source="houy_Up9C2UZ-9tv4yLi-1" target="houy_Up9C2UZ-9tv4yLi-47" edge="1">
                    <mxGeometry relative="1" as="geometry">
                        <mxPoint x="45" y="616" as="sourcePoint"/>
                    </mxGeometry>
                </mxCell>
                <mxCell id="houy_Up9C2UZ-9tv4yLi-51" value="Entityに変換" style="html=1;verticalAlign=bottom;endArrow=block;curved=0;rounded=0;entryX=0;entryY=0;entryDx=0;entryDy=5;fontSize=12;startSize=8;endSize=8;" parent="1" source="houy_Up9C2UZ-9tv4yLi-2" target="houy_Up9C2UZ-9tv4yLi-50" edge="1">
                    <mxGeometry relative="1" as="geometry">
                        <mxPoint x="230" y="627" as="sourcePoint"/>
                    </mxGeometry>
                </mxCell>
                <mxCell id="houy_Up9C2UZ-9tv4yLi-52" value="Product" style="html=1;verticalAlign=bottom;endArrow=open;dashed=1;endSize=8;curved=0;rounded=0;exitX=0;exitY=1;exitDx=0;exitDy=-5;fontSize=12;" parent="1" source="houy_Up9C2UZ-9tv4yLi-50" target="houy_Up9C2UZ-9tv4yLi-2" edge="1">
                    <mxGeometry relative="1" as="geometry">
                        <mxPoint x="230" y="697" as="targetPoint"/>
                    </mxGeometry>
                </mxCell>
                <mxCell id="houy_Up9C2UZ-9tv4yLi-54" value="&lt;br&gt;&lt;div&gt;&lt;br&gt;&lt;/div&gt;" style="html=1;verticalAlign=bottom;endArrow=block;curved=0;rounded=0;entryX=0;entryY=0;entryDx=0;entryDy=5;fontSize=12;startSize=8;endSize=8;" parent="1" source="houy_Up9C2UZ-9tv4yLi-2" target="houy_Up9C2UZ-9tv4yLi-53" edge="1">
                    <mxGeometry relative="1" as="geometry">
                        <mxPoint x="315" y="681" as="sourcePoint"/>
                    </mxGeometry>
                </mxCell>
                <mxCell id="houy_Up9C2UZ-9tv4yLi-61" value="addProduct(Product)" style="edgeLabel;html=1;align=center;verticalAlign=middle;resizable=0;points=[];fontSize=12;" parent="houy_Up9C2UZ-9tv4yLi-54" vertex="1" connectable="0">
                    <mxGeometry x="0.0043" y="8" relative="1" as="geometry">
                        <mxPoint as="offset"/>
                    </mxGeometry>
                </mxCell>
                <mxCell id="houy_Up9C2UZ-9tv4yLi-55" value="void" style="html=1;verticalAlign=bottom;endArrow=open;dashed=1;endSize=8;curved=0;rounded=0;fontSize=12;" parent="1" edge="1" source="houy_Up9C2UZ-9tv4yLi-10">
                    <mxGeometry relative="1" as="geometry">
                        <mxPoint x="113" y="723" as="targetPoint"/>
                        <mxPoint x="385.5" y="723" as="sourcePoint"/>
                    </mxGeometry>
                </mxCell>
                <mxCell id="houy_Up9C2UZ-9tv4yLi-57" value="complete()" style="html=1;verticalAlign=bottom;endArrow=block;curved=0;rounded=0;entryX=0;entryY=0;entryDx=0;entryDy=5;fontSize=12;startSize=8;endSize=8;" parent="1" source="houy_Up9C2UZ-9tv4yLi-1" target="houy_Up9C2UZ-9tv4yLi-56" edge="1">
                    <mxGeometry relative="1" as="geometry">
                        <mxPoint x="38" y="839" as="sourcePoint"/>
                    </mxGeometry>
                </mxCell>
                <mxCell id="houy_Up9C2UZ-9tv4yLi-58" value="完了画面" style="html=1;verticalAlign=bottom;endArrow=open;dashed=1;endSize=8;curved=0;rounded=0;exitX=0;exitY=1;exitDx=0;exitDy=-5;fontSize=12;" parent="1" source="houy_Up9C2UZ-9tv4yLi-56" target="houy_Up9C2UZ-9tv4yLi-1" edge="1">
                    <mxGeometry relative="1" as="geometry">
                        <mxPoint x="38" y="909" as="targetPoint"/>
                    </mxGeometry>
                </mxCell>
                <mxCell id="houy_Up9C2UZ-9tv4yLi-60" value="セッション破棄" style="html=1;align=left;spacingLeft=2;endArrow=block;rounded=0;edgeStyle=orthogonalEdgeStyle;curved=0;rounded=0;fontSize=12;startSize=8;endSize=8;" parent="1" edge="1">
                    <mxGeometry x="-0.575" y="11" relative="1" as="geometry">
                        <mxPoint x="120" y="860" as="sourcePoint"/>
                        <Array as="points">
                            <mxPoint x="123" y="860"/>
                            <mxPoint x="153" y="860"/>
                            <mxPoint x="153" y="882"/>
                        </Array>
                        <mxPoint x="128" y="882" as="targetPoint"/>
                        <mxPoint as="offset"/>
                    </mxGeometry>
                </mxCell>
                <mxCell id="houy_Up9C2UZ-9tv4yLi-63" value="insert(Product)" style="html=1;verticalAlign=bottom;endArrow=block;curved=0;rounded=0;entryX=0;entryY=0;entryDx=0;entryDy=5;fontSize=12;startSize=8;endSize=8;" parent="1" source="houy_Up9C2UZ-9tv4yLi-10" target="houy_Up9C2UZ-9tv4yLi-62" edge="1">
                    <mxGeometry relative="1" as="geometry">
                        <mxPoint x="557" y="701" as="sourcePoint"/>
                    </mxGeometry>
                </mxCell>
                <mxCell id="houy_Up9C2UZ-9tv4yLi-64" value="void" style="html=1;verticalAlign=bottom;endArrow=open;dashed=1;endSize=8;curved=0;rounded=0;exitX=0;exitY=1;exitDx=0;exitDy=-5;fontSize=12;" parent="1" source="houy_Up9C2UZ-9tv4yLi-62" target="houy_Up9C2UZ-9tv4yLi-10" edge="1">
                    <mxGeometry relative="1" as="geometry">
                        <mxPoint x="557" y="771" as="targetPoint"/>
                    </mxGeometry>
                </mxCell>
                <mxCell id="houy_Up9C2UZ-9tv4yLi-67" value="void" style="html=1;verticalAlign=bottom;endArrow=open;dashed=1;endSize=8;curved=0;rounded=0;exitX=0;exitY=1;exitDx=0;exitDy=-5;fontSize=12;" parent="1" source="houy_Up9C2UZ-9tv4yLi-65" target="houy_Up9C2UZ-9tv4yLi-26" edge="1">
                    <mxGeometry relative="1" as="geometry">
                        <mxPoint x="670" y="775" as="targetPoint"/>
                    </mxGeometry>
                </mxCell>
                <mxCell id="houy_Up9C2UZ-9tv4yLi-66" value="SQL(INSERT)" style="html=1;verticalAlign=bottom;endArrow=block;curved=0;rounded=0;entryX=0;entryY=0;entryDx=0;entryDy=5;fontSize=12;startSize=8;endSize=8;" parent="1" source="houy_Up9C2UZ-9tv4yLi-26" target="houy_Up9C2UZ-9tv4yLi-65" edge="1">
                    <mxGeometry relative="1" as="geometry">
                        <mxPoint x="670" y="705" as="sourcePoint"/>
                    </mxGeometry>
                </mxCell>
                <mxCell id="KnMoUPqx_zOF8DZG7F0--1" value="FlashScopeにセット" style="html=1;align=left;spacingLeft=2;endArrow=block;rounded=0;edgeStyle=orthogonalEdgeStyle;curved=0;rounded=0;fontSize=12;startSize=8;endSize=8;" parent="1" edge="1">
                    <mxGeometry x="0.275" relative="1" as="geometry">
                        <mxPoint x="120" y="742" as="sourcePoint"/>
                        <Array as="points">
                            <mxPoint x="123" y="742"/>
                            <mxPoint x="153" y="742"/>
                            <mxPoint x="153" y="764"/>
                        </Array>
                        <mxPoint x="128" y="764" as="targetPoint"/>
                        <mxPoint as="offset"/>
                    </mxGeometry>
                </mxCell>
                <mxCell id="2" value="Product&lt;br&gt;Stock&lt;br&gt;Form" style="shape=umlLifeline;perimeter=lifelinePerimeter;whiteSpace=wrap;html=1;container=1;dropTarget=0;collapsible=0;recursiveResize=0;outlineConnect=0;portConstraint=eastwest;newEdgeStyle={&quot;curved&quot;:0,&quot;rounded&quot;:0};" vertex="1" parent="1">
                    <mxGeometry x="287" y="19" width="55" height="1028" as="geometry"/>
                </mxCell>
                <mxCell id="3" value="" style="html=1;points=[[0,0,0,0,5],[0,1,0,0,-5],[1,0,0,0,5],[1,1,0,0,-5]];perimeter=orthogonalPerimeter;outlineConnect=0;targetShapes=umlLifeline;portConstraint=eastwest;newEdgeStyle={&quot;curved&quot;:0,&quot;rounded&quot;:0};" vertex="1" parent="2">
                    <mxGeometry x="22.5" y="407" width="10" height="36" as="geometry"/>
                </mxCell>
                <mxCell id="4" value="セット" style="html=1;verticalAlign=bottom;endArrow=block;curved=0;rounded=0;entryX=0;entryY=0;entryDx=0;entryDy=5;" edge="1" target="3" parent="1" source="houy_Up9C2UZ-9tv4yLi-2">
                    <mxGeometry relative="1" as="geometry">
                        <mxPoint x="151.5" y="436" as="sourcePoint"/>
                    </mxGeometry>
                </mxCell>
                <mxCell id="5" value="ProductStockForm" style="html=1;verticalAlign=bottom;endArrow=open;dashed=1;endSize=8;curved=0;rounded=0;" edge="1" source="3" parent="1" target="houy_Up9C2UZ-9tv4yLi-2">
                    <mxGeometry x="-0.0322" y="26" relative="1" as="geometry">
                        <mxPoint x="151.5" y="506" as="targetPoint"/>
                        <mxPoint x="1" as="offset"/>
                    </mxGeometry>
                </mxCell>
            </root>
        </mxGraphModel>
    </diagram>
</mxfile>